<svg width="0" height="0" class="hidden">
  <symbol version="1.1" id="letter-x" xmlns="http://www.w3.org/2000/svg" xmlns:xlink="http://www.w3.org/1999/xlink" x="0px" y="0px" xml:space="preserve" viewBox="0 0 22.88 22.88">
    <path d="M0.324,1.909c-0.429-0.429-0.429-1.143,0-1.587c0.444-0.429,1.143-0.429,1.587,0l9.523,9.539
	l9.539-9.539c0.429-0.429,1.143-0.429,1.571,0c0.444,0.444,0.444,1.159,0,1.587l-9.523,9.524l9.523,9.539
	c0.444,0.429,0.444,1.143,0,1.587c-0.429,0.429-1.143,0.429-1.571,0l-9.539-9.539l-9.523,9.539c-0.444,0.429-1.143,0.429-1.587,0
	c-0.429-0.444-0.429-1.159,0-1.587l9.523-9.539L0.324,1.909z"></path>
    <g></g>
    <g></g>
    <g></g>
    <g></g>
    <g></g>
    <g></g>
    <g></g>
    <g></g>
    <g></g>
    <g></g>
    <g></g>
    <g></g>
    <g></g>
    <g></g>
    <g></g>
  </symbol>
</svg>